<?xml version="1.0" encoding="UTF-8"?>
<svg version="1.1" xmlns="http://www.w3.org/2000/svg" width="500" height="147">
<path d="M0 0 C165 0 330 0 500 0 C500 48.51 500 97.02 500 147 C335 147 170 147 0 147 C0 98.49 0 49.98 0 0 Z " fill="#2A2929" transform="translate(0,0)"/>
<path d="M0 0 C0.495 0.495 0.495 0.495 1 1 C0.90238323 2.69097445 0.74223954 4.37827397 0.5625 6.0625 C-0.3661477 16.68241985 -0.08464384 27.34919993 0 38 C0.4012207 37.51716553 0.80244141 37.03433105 1.21582031 36.53686523 C1.74788086 35.90466064 2.27994141 35.27245605 2.828125 34.62109375 C3.3530957 33.99388428 3.87806641 33.3666748 4.41894531 32.72045898 C8.01099617 28.81169085 11.73661519 27.81391944 16.875 27.5625 C23.11849925 27.80587478 27.44221022 29.4788248 31.91015625 33.8828125 C39.24150948 42.56836474 41.21136977 52.66933997 43.50073242 63.4921875 C45.5570457 73.20485847 45.5570457 73.20485847 51.25 81.0625 C52.11625 81.5265625 52.11625 81.5265625 53 82 C52.40309841 85.64263024 52.1261251 85.90918993 48.875 88.25 C42.02536371 91.36571904 33.64144918 91.12861986 26.4296875 89.375 C22.17077047 87.5613167 19.40276886 84.76704815 17.0390625 80.84033203 C14.60671168 74.19137304 15.29263596 66.68169821 15.3125 59.6875 C15.30359711 57.20407413 15.28765753 54.72104694 15.2610321 52.23774719 C15.24614864 50.69971932 15.24229524 49.16153519 15.25080872 47.62345886 C15.23062224 43.86504217 15.1396054 42.20940809 13 39 C10.5509775 38.41121423 10.5509775 38.41121423 8 39 C6.1590664 40.70131309 6.1590664 40.70131309 4.8125 43.0625 C4.32394531 43.81660156 3.83539063 44.57070313 3.33203125 45.34765625 C0.36033194 51.26491089 -0.38810317 56.93177847 -0.375 63.4375 C-0.37483887 64.18523682 -0.37467773 64.93297363 -0.37451172 65.70336914 C-0.23540017 72.40342068 1.1033883 77.1033883 6 82 C5.9375 83.9375 5.9375 83.9375 5 86 C-1.17825001 90.90625736 -9.47744668 90.20508923 -17 90.25 C-17.86367188 90.270625 -18.72734375 90.29125 -19.6171875 90.3125 C-25.20251864 90.34645338 -29.0588422 89.65072528 -34 87 C-34.66 86.34 -35.32 85.68 -36 85 C-35.7746318 82.14533617 -35.35304655 80.44514565 -33.5625 78.1875 C-29.69235347 72.76929486 -29.69140117 65.7623324 -29.69921875 59.3359375 C-29.69279106 58.14238144 -29.69279106 58.14238144 -29.68623352 56.92471313 C-29.68053064 55.25580796 -29.67995984 53.58687795 -29.68432617 51.91796875 C-29.68750054 49.37456955 -29.6639279 46.83231962 -29.63867188 44.2890625 C-29.63639977 42.65885562 -29.63569497 41.02864564 -29.63671875 39.3984375 C-29.627509 38.64517181 -29.61829926 37.89190613 -29.60881042 37.11581421 C-29.6591589 31.34043327 -31.04199612 27.39311585 -34.6875 22.9375 C-36 21 -36 21 -36.625 18.625 C-35.61962129 14.40240942 -32.4313946 12.47116574 -29 10 C-25.83313691 8.19916903 -22.57188595 6.67901139 -19.25 5.1875 C-17.97576172 4.59678711 -17.97576172 4.59678711 -16.67578125 3.99414062 C-10.85084528 1.3117254 -6.55169195 -0.24265526 0 0 Z " fill="#F9FAEA" transform="translate(65,17)"/>
<path d="M0 0 C1.8871875 0.0309375 1.8871875 0.0309375 3.8125 0.0625 C4.3075 4.0225 4.3075 4.0225 4.8125 8.0625 C5.534375 7.299375 6.25625 6.53625 7 5.75 C11.1546171 1.78003255 13.83828511 -0.10955436 19.625 -0.375 C25.68341741 -0.14994735 30.22215678 1.40619896 34.5 5.79296875 C41.07181593 14.0241682 43.73436342 23.71558098 46.375 33.75 C48.70055995 43.25914583 48.70055995 43.25914583 52.8125 52.0625 C53.4725 52.3925 54.1325 52.7225 54.8125 53.0625 C55.0625 55.375 55.0625 55.375 54.8125 58.0625 C50.45033317 62.58622857 44.43121159 62.25988966 38.5 62.375 C32.4227176 62.375 27.6118852 62.009451 22.8125 58.0625 C18.3815199 52.72969286 17.07734146 48.07665941 17.140625 41.2578125 C17.12787537 40.45262177 17.11512573 39.64743103 17.10198975 38.81784058 C17.06597212 36.27402617 17.06298274 33.73154571 17.0625 31.1875 C17.04086885 28.62252618 17.01244561 26.05775007 16.98016357 23.4928894 C16.96242654 21.90370286 16.95212168 20.3144123 16.95001221 18.72512817 C17.01592224 14.76476126 17.01592224 14.76476126 15.8125 11.0625 C13.44672761 10.71767488 13.44672761 10.71767488 10.8125 11.0625 C8.97251708 12.80035059 8.97251708 12.80035059 7.625 15.1875 C7.13644531 15.95320313 6.64789063 16.71890625 6.14453125 17.5078125 C1.53491965 26.34853387 1.6483067 36.56599603 4.03125 46.1328125 C4.89941066 48.27716933 5.96151616 49.65702638 7.5 51.375 C9.8125 54.0625 9.8125 54.0625 9.9375 56.25 C8.28802852 58.90748182 6.65453358 59.76504989 3.8125 61.0625 C-1.65822283 62.06408436 -7.02022686 62.27708611 -12.5625 62.3125 C-13.76132812 62.3434375 -13.76132812 62.3434375 -14.984375 62.375 C-20.83178496 62.41284731 -25.80461426 61.38357478 -31.1875 59.0625 C-32.1875 58.0625 -32.1875 58.0625 -32.5 55.875 C-32.08477766 52.13799893 -30.32595698 50.10818115 -28.1875 47.0625 C-26.93335249 43.48378609 -26.98571268 39.88960682 -26.9375 36.125 C-26.91171875 34.91972656 -26.8859375 33.71445313 -26.859375 32.47265625 C-27.21439256 28.78300942 -28.05384493 27.0402953 -30.1875 24.0625 C-32.56908405 20.49012392 -33.01127719 19.26376369 -32.1875 15.0625 C-26.12426595 7.72698077 -9.52050267 -0.15607381 0 0 Z " fill="#F9FAEA" transform="translate(386.1875,44.9375)"/>
<path d="M0 0 C9.20961603 7.09625151 9.95144805 16.98108822 11.40234375 27.8359375 C12.48228449 35.20932601 13.80812886 41.59308652 19.29296875 46.9296875 C20.98046875 48.6796875 20.98046875 48.6796875 20.98046875 50.7421875 C19.17419428 54.24184429 16.62589451 55.46454558 12.98046875 56.6796875 C4.82294741 57.80241256 -0.80295746 55.84187368 -7.9765625 51.9921875 C-12.29790157 50.12829799 -15.30734073 50.0003264 -19.6875 51.73828125 C-20.93466797 52.42083984 -20.93466797 52.42083984 -22.20703125 53.1171875 C-29.22832973 56.90286456 -36.27284649 58.08788413 -44.1875 56.1484375 C-49.14678825 54.13406876 -52.89334045 51.38839079 -55.83203125 46.9296875 C-57.27047956 42.99288161 -57.77121719 39.81809031 -57.01953125 35.6796875 C-53.57496856 29.1596224 -49.71404053 26.65702295 -42.92578125 24.49609375 C-40.63895037 23.85369099 -38.35887385 23.26391303 -36.05078125 22.70703125 C-35.34663086 22.53679443 -34.64248047 22.36655762 -33.91699219 22.19116211 C-32.51087777 21.85625878 -31.10269238 21.5299074 -29.69238281 21.21313477 C-24.08246408 19.89279152 -20.26627785 18.5498074 -17.01953125 13.6796875 C-16.68794097 10.0321944 -16.54621722 7.57898416 -18.26953125 4.3046875 C-20.22441043 2.48944254 -21.46103781 2.21887413 -24.01953125 1.6796875 C-24.1896875 2.49953125 -24.35984375 3.319375 -24.53515625 4.1640625 C-24.7775 5.24171875 -25.01984375 6.319375 -25.26953125 7.4296875 C-25.5015625 8.49703125 -25.73359375 9.564375 -25.97265625 10.6640625 C-27.34378502 14.61373195 -29.28346159 16.81165267 -33.01953125 18.6796875 C-38.45435977 18.95603471 -42.8554258 18.64204757 -48.01953125 16.6796875 C-50.58158967 12.83659986 -50.6931989 11.2456571 -50.01953125 6.6796875 C-46.68421999 0.99923551 -42.62685867 -2.10250252 -36.328125 -3.84765625 C-23.7714225 -6.41848705 -11.09581523 -7.25413065 0 0 Z " fill="#F9FAE9" transform="translate(176.01953125,50.3203125)"/>
<path d="M0 0 C4.62585178 2.94631175 8.95751494 5.74060096 11 11 C11.66580959 15.99357196 11.50250933 18.87629293 8.625 23.0625 C4.29679241 28.28940464 -1.53451569 32.84483856 -8 35 C-9.85227252 35.09357692 -11.7078718 35.12993909 -13.5625 35.125 C-14.53316406 35.12757812 -15.50382812 35.13015625 -16.50390625 35.1328125 C-19 35 -19 35 -21 34 C-18.45395403 37.52381687 -18.45395403 37.52381687 -15 40 C-6.90415829 40.98386965 -0.74168691 39.59714327 6 35 C7.16060875 33.91177331 8.29011663 32.78873454 9.375 31.625 C10.24125 30.75875 11.1075 29.8925 12 29 C14.1640625 29.3359375 14.1640625 29.3359375 16 30 C15.33601939 37.96776729 12.17976421 45.65980286 6 51 C-4.61572349 58.04802493 -12.37161529 59.87715032 -25 59 C-34.1932061 57.13872161 -41.05928653 51.01223331 -46.73828125 43.7890625 C-51.23204227 36.3711922 -51.24751139 27.39156452 -50 19 C-48.90937139 15.39792387 -47.40638586 12.87364525 -45 10 C-44.40703125 9.28328125 -43.8140625 8.5665625 -43.203125 7.828125 C-32.58531389 -3.80899597 -14.25395227 -6.95670708 0 0 Z " fill="#F8F9E8" transform="translate(336,48)"/>
<path d="M0 0 C-0.38478516 1.82337891 -0.38478516 1.82337891 -0.77734375 3.68359375 C-1.51913714 10.35973428 1.03814735 15.93867357 3.4375 22.0625 C3.87126953 23.21427734 4.30503906 24.36605469 4.75195312 25.55273438 C5.81778161 28.37542301 6.90063953 31.19023992 8 34 C13.19457037 23.13714058 16.311807 15.25863716 15.77734375 3.109375 C16 0 16 0 17.12890625 -1.796875 C22.03660909 -4.95255867 26.90138883 -5.29529476 32.625 -5.3125 C34.56246094 -5.33763672 34.56246094 -5.33763672 36.5390625 -5.36328125 C40.10032468 -4.98946931 41.46289477 -4.44051493 44 -2 C43.62413552 0.41480056 43.3646979 1.67719951 41.50390625 3.32421875 C40.86324219 3.77410156 40.22257812 4.22398438 39.5625 4.6875 C32.83278015 10.29960566 29.19930782 18.45818263 25 26 C10.14379308 52.48742319 10.14379308 52.48742319 -2 57 C-5.16192148 57.63344892 -7.89747931 57.94690937 -11 57 C-16.22704724 53.05416885 -17.24954815 48.80082292 -18.75 42.75 C-23.10631384 26.90793532 -30.31653896 11.83498762 -44 2 C-43.67 0.35 -43.34 -1.3 -43 -3 C-29.24359453 -6.26423181 -12.63579242 -7.31545877 0 0 Z " fill="#F9FAEA" transform="translate(240,50)"/>
<path d="M0 0 C4.28712087 2.26965223 7.52115655 4.80503416 10 9 C10.62569756 13.92736827 10.57588798 15.94751507 8.1875 20.3125 C3.76595745 25.74468085 3.76595745 25.74468085 0 27 C-4.68953585 27.38438818 -7.06443464 27.45895659 -11.3125 25.375 C-14.78338709 22.30770443 -16.56651453 19.67583625 -17.31640625 15.046875 C-17.61828755 9.9441072 -16.45917428 6.91432879 -13 3 C-8.634442 0.089628 -5.20499921 -0.6506249 0 0 Z " fill="#F7F8E7" transform="translate(460,80)"/>
<path d="M0 0 C0.55300781 0.2371875 1.10601562 0.474375 1.67578125 0.71875 C2.05026845 12.41107272 2.05026845 12.41107272 -0.32421875 17.71875 C-1.32421875 18.71875 -1.32421875 18.71875 -5.13671875 19.03125 C-8.16826193 18.97672584 -9.21544628 18.78507468 -11.88671875 17.15625 C-13.32421875 14.71875 -13.32421875 14.71875 -13.69921875 11.46875 C-11.82392868 6.35432254 -6.06883444 -0.73437997 0 0 Z " fill="#353433" transform="translate(159.32421875,75.28125)"/>
<path d="M0 0 C3.53571429 0.53571429 3.53571429 0.53571429 5 2 C5.5450198 9.63027716 4.43580378 16.08891743 -0.5625 22.0625 C-3 24 -3 24 -5 24 C-5.32290808 16.2621657 -5.53007672 9.07634645 -2 2 C-1.34 1.34 -0.68 0.68 0 0 Z " fill="#353433" transform="translate(317,52)"/>
</svg>
