<?xml version="1.0" encoding="UTF-8"?>
<svg version="1.1" xmlns="http://www.w3.org/2000/svg" width="500" height="500">
<path d="M0 0 C165 0 330 0 500 0 C500 165 500 330 500 500 C335 500 170 500 0 500 C0 335 0 170 0 0 Z " fill="#292828" transform="translate(0,0)"/>
<path d="M0 0 C1.32 0 2.64 0 4 0 C4.0093457 0.83845459 4.01869141 1.67690918 4.02832031 2.54077148 C4.17406564 48.29631705 4.17406564 48.29631705 26.5 86.625 C43.35695432 100.93703296 65.29384027 105.60527273 86.625 108.8125 C87.28522156 108.91186859 87.94544312 109.01123718 88.62567139 109.11361694 C107.34892935 111.87628926 126.1616245 113.2983518 145.0625 114.0625 C146.02616486 114.10324646 146.98982971 114.14399292 147.98269653 114.18597412 C175.63953458 115.34264839 203.32338543 115.65423877 231 116 C231 116.66 231 117.32 231 118 C230.25610519 118.00808685 229.51221039 118.01617371 228.74577332 118.02450562 C163.09033575 118.04225644 163.09033575 118.04225644 97.77001953 123.61767578 C94.99405434 124.00082063 92.21538598 124.34561899 89.43359375 124.68359375 C63.78337334 127.9083247 36.35194844 134.30185077 19 155 C8.35100453 169.67512574 5.07945574 188.76221773 4.68359375 206.55859375 C4.6524221 207.74232323 4.6524221 207.74232323 4.62062073 208.94996643 C4.55576695 211.44573109 4.49654195 213.94159178 4.4375 216.4375 C4.39425358 218.13998348 4.35063744 219.84245762 4.30664062 221.54492188 C4.20015237 225.69651873 4.09870853 229.84821118 4 234 C2.68 234 1.36 234 0 234 C-0.02187378 232.9162207 -0.02187378 232.9162207 -0.04418945 231.81054688 C-0.31128348 187.50235187 -0.31128348 187.50235187 -20.25 149.25 C-56.24271645 115.81109048 -124.21453209 119.83946995 -170 119 C-172.32714959 118.9559526 -174.65429793 118.91183943 -176.98144531 118.86767578 C-193.65389813 118.55404093 -210.32675817 118.26818577 -227 118 C-227 117.34 -227 116.68 -227 116 C-226.0362999 115.97716446 -225.07259979 115.95432892 -224.07969666 115.93080139 C-214.8892118 115.71272814 -205.69878765 115.49223243 -196.50841427 115.26950932 C-191.78631691 115.15514615 -187.06420373 115.04156596 -182.34204102 114.92993164 C-143.17219916 114.18643963 -143.17219916 114.18643963 -104.125 111.25 C-103.31703979 111.16385437 -102.50907959 111.07770874 -101.67663574 110.98895264 C-55.8765589 106.14907694 -55.8765589 106.14907694 -18 82 C-0.10282369 58.46448563 -0.8625805 28.17412335 0 0 Z " fill="#FAFBEB" transform="translate(248,133)"/>
</svg>
