<?xml version="1.0" encoding="UTF-8"?>
<svg version="1.1" xmlns="http://www.w3.org/2000/svg" width="1280" height="419">
<path d="M0 0 C0.9796875 0.01289062 1.959375 0.02578125 2.96875 0.0390625 C5.5 0.375 5.5 0.375 8.5 2.375 C10.15433198 9.46021979 9.00951119 16.23168959 8.125 23.375 C6.28848163 39.3629645 5.78686741 55.29299136 5.5 71.375 C5.88381836 70.84680664 6.26763672 70.31861328 6.66308594 69.77441406 C12.94508904 61.24353975 19.77121625 53.73474615 30.5 51.375 C42.45112216 49.99298698 51.87538865 52.38064926 61.8125 59.0625 C78.18602991 72.3850616 82.37056469 95.9222665 86.69116211 115.39599609 C88.84947774 125.08580062 91.0195259 134.46467863 95.5 143.375 C95.5 144.035 95.5 144.695 95.5 145.375 C96.0775 145.643125 96.655 145.91125 97.25 146.1875 C103.14989059 149.30133115 103.14989059 149.30133115 104.4375 153.25 C104.51350484 157.05024217 103.83951103 158.41161936 101.5 161.375 C93.46831349 169.1835841 81.01654754 168.40472576 70.5 168.375 C61.25390312 168.04781449 53.41220586 166.2526422 45.5 161.375 C45.5 160.715 45.5 160.055 45.5 159.375 C44.9225 159.16875 44.345 158.9625 43.75 158.75 C38.48577202 155.53297179 36.65508589 149.92904219 35.14257812 144.22241211 C32.27716292 131.52509541 33.44656254 117.84828312 33.59594727 104.91723633 C34.18549924 89.95714697 34.18549924 89.95714697 31.5 75.375 C29.64129222 73.13906389 29.64129222 73.13906389 26.8125 72.875 C21.95105504 73.60880301 19.62064854 75.64511421 16.5 79.375 C5.96358026 95.34256394 3.96371705 113.93223822 7.109375 132.640625 C8.17930831 137.42257184 9.62506037 141.85068915 11.5 146.375 C12.16 146.375 12.82 146.375 13.5 146.375 C13.5 147.035 13.5 147.695 13.5 148.375 C14.49 148.705 15.48 149.035 16.5 149.375 C18.5 152.375 18.5 152.375 18.4375 155.8125 C17.5 159.375 17.5 159.375 15.5 161.625 C-2.01882688 171.84431568 -28.27709466 169.75278388 -47.5 166.375 C-52.75179564 164.9670453 -58.48272852 163.17520462 -61.5 158.375 C-61.96337203 153.97296571 -61.98038907 152.0955836 -59.5 148.375 C-58.84 148.375 -58.18 148.375 -57.5 148.375 C-57.231875 147.818125 -56.96375 147.26125 -56.6875 146.6875 C-55.5 144.375 -55.5 144.375 -54 142.25 C-46.80932119 128.46786561 -49.33625637 108.01340185 -49.36962891 92.84301758 C-49.37503831 89.91677785 -49.3696209 86.99068853 -49.36328125 84.06445312 C-49.36394141 82.1692705 -49.36522128 80.27408797 -49.3671875 78.37890625 C-49.36516327 77.52140274 -49.36313904 76.66389923 -49.36105347 75.78041077 C-49.23904482 64.33112445 -49.23904482 64.33112445 -52.375 53.5 C-52.72820312 52.76910156 -53.08140625 52.03820312 -53.4453125 51.28515625 C-54.61962704 49.15834215 -55.98352234 47.27059708 -57.5 45.375 C-57.5 44.715 -57.5 44.055 -57.5 43.375 C-58.16 43.375 -58.82 43.375 -59.5 43.375 C-61.98078465 39.65382303 -62.14062189 36.68687812 -61.5 32.375 C-55.8638952 20.63311499 -39.80758259 14.26715859 -28.5625 9.25 C-27.65048828 8.83363281 -26.73847656 8.41726562 -25.79882812 7.98828125 C-7.5844666 -0.22427186 -7.5844666 -0.22427186 0 0 Z " fill="#FDFEF1" transform="translate(484.5,84.625)"/>
<path d="M0 0 C3.94603257 2.65753214 4.82066995 4.15852824 5.8125 8.8125 C5.874375 9.864375 5.93625 10.91625 6 12 C6.53367187 11.46890625 7.06734375 10.9378125 7.6171875 10.390625 C15.07400077 3.32084356 21.4432505 -0.11416216 31.8125 -0.5625 C42.57997163 -0.19968302 51.46217833 3.42779723 59.1484375 10.98828125 C72.65984523 25.66839725 77.22034852 46.88006561 81.59765625 65.78515625 C81.85538818 66.89777832 82.11312012 68.01040039 82.37866211 69.15673828 C82.86183584 71.28067958 83.33103707 73.40786812 83.78344727 75.53857422 C85.58987272 83.61051741 88.20236265 91.23896216 94.8125 96.625 C97.51472466 99.17940056 97.95572315 99.78599521 98.75 103.625 C97.79153312 107.93810095 96.49183648 109.32540185 93 112 C80.53165935 119.31837386 61.5867099 118.04820211 48 115 C44.4877245 113.5977273 41.23574411 111.95337548 38 110 C38 109.34 38 108.68 38 108 C37.13375 107.7215625 37.13375 107.7215625 36.25 107.4375 C31.86296408 104.6346715 29.61332057 98.8399617 28 94 C27.24876685 90.09985053 26.86672038 86.38146698 26.82641602 82.4128418 C26.81292618 81.34120285 26.79943634 80.2695639 26.78553772 79.16545105 C26.76988014 77.44966606 26.76988014 77.44966606 26.75390625 75.69921875 C26.72096794 73.25325163 26.68775629 70.80728817 26.65429688 68.36132812 C26.60693501 64.52354441 26.56248235 60.68577558 26.52319336 56.84790039 C26.48330931 53.13151919 26.43180807 49.41543433 26.37890625 45.69921875 C26.3704921 44.56143478 26.36207794 43.42365082 26.35340881 42.25138855 C26.56493909 31.31453963 26.56493909 31.31453963 22 22 C17.55153711 22.24045745 15.21987933 24.04682754 12 27 C10.47502225 29.30532673 9.1195252 31.51963077 7.8125 33.9375 C7.47025391 34.54529297 7.12800781 35.15308594 6.77539062 35.77929688 C1.53403679 45.21373378 0.81900507 53.17671261 0.8125 63.8125 C0.80025391 64.85470703 0.78800781 65.89691406 0.77539062 66.97070312 C0.76353268 73.26727216 1.31662374 78.93278234 3 85 C3.23460937 85.91652344 3.46921875 86.83304687 3.7109375 87.77734375 C3.93007812 88.49019531 4.14921875 89.20304687 4.375 89.9375 C4.58898438 90.66839844 4.80296875 91.39929688 5.0234375 92.15234375 C6.28447557 94.53822778 7.56408925 94.94738847 10 96 C12.3125 98.1875 12.3125 98.1875 14 101 C14.07216521 105.11341722 13.7532053 107.15264404 11 110.25 C-6.34897104 120.37023311 -32.89971285 118.61356784 -52 115 C-57.04320574 113.57724688 -61.55740091 112.10423976 -65 108 C-66.04085413 104.58005071 -66.35653805 102.79230678 -64.875 99.5 C-63.46161532 97.6154871 -61.96745558 95.79116751 -60.4375 94 C-53.16298145 85.0467464 -54.5504207 71.99221394 -55 61 C-55.9289157 53.3786689 -58.30000912 47.31999149 -64 42 C-65.78516095 38.42967811 -65.72785296 34.88188246 -65 31 C-56.28657555 15.25214984 -29.05359163 6.05458094 -12.953125 0.74609375 C-8.5411612 -0.36856906 -4.4801866 -1.04367983 0 0 Z " fill="#FDFEF1" transform="translate(1087,136)"/>
<path d="M0 0 C15.78814358 13.38503825 18.59057892 31.86723103 20.73583984 51.51342773 C22.36491763 66.27230703 25.17190116 76.76423492 36.57421875 86.7109375 C38.63671875 89.1484375 38.63671875 89.1484375 39.32421875 92.6484375 C38.56906449 96.4928592 37.51701312 97.82170929 34.3515625 100.0859375 C24.97362638 105.89641272 13.67352023 106.71210703 2.90625 104.6171875 C0.7395483 103.91157137 -1.29349576 103.09996953 -3.36328125 102.1484375 C-4.05035156 101.84679687 -4.73742187 101.54515625 -5.4453125 101.234375 C-8.80262102 99.74627068 -12.15037337 98.24940136 -15.46875 96.67578125 C-22.68897885 93.42077975 -22.68897885 93.42077975 -30.36328125 93.8984375 C-35.48363179 95.9216004 -40.26300976 98.72598369 -44.9921875 101.52734375 C-56.3467816 106.98754833 -71.52853348 106.90030746 -83.48828125 103.5234375 C-92.66156105 100.20147467 -100.60400143 94.96925202 -105.39453125 86.27734375 C-108.64383056 78.80094673 -108.23514693 70.88344539 -105.421875 63.33203125 C-103.60367054 59.58156522 -101.28239196 56.13259803 -98.36328125 53.1484375 C-97.70328125 53.1484375 -97.04328125 53.1484375 -96.36328125 53.1484375 C-96.36328125 52.4884375 -96.36328125 51.8284375 -96.36328125 51.1484375 C-85.22453688 45.14475647 -72.90815507 42.77527754 -60.64453125 40.12109375 C-46.80371541 37.57535341 -46.80371541 37.57535341 -36.36328125 29.1484375 C-35.70328125 29.1484375 -35.04328125 29.1484375 -34.36328125 29.1484375 C-32.51450951 21.87826754 -31.63541694 16.04822139 -34.87109375 9.0859375 C-36.65135283 6.77439691 -37.81327029 6.24087803 -40.61328125 5.5234375 C-41.85078125 5.3996875 -43.08828125 5.2759375 -44.36328125 5.1484375 C-45.91370381 9.58114341 -47.07802988 14.02209456 -48.17578125 18.5859375 C-49.92866123 25.28846136 -51.35581881 30.69820264 -57.484375 34.4453125 C-65.61850421 38.24557767 -74.24059722 38.56983173 -82.67578125 35.5234375 C-87.11769964 33.50308107 -91.24615558 30.96143526 -94.36328125 27.1484375 C-96.48248485 20.80329261 -95.55762495 15.22270572 -92.66796875 9.34375 C-86.72574834 -0.65483644 -75.54971454 -5.7435636 -64.86328125 -9.2890625 C-44.21184425 -14.25314361 -17.28936159 -13.5457147 0 0 Z M-41.61328125 52.2109375 C-42.26941406 52.67693359 -42.92554688 53.14292969 -43.6015625 53.62304688 C-48.46771848 57.17833977 -53.95005647 61.30640951 -56.09472656 67.13696289 C-56.56858177 70.68613837 -55.03128316 73.09043399 -53.36328125 76.1484375 C-49.37116741 79.67089089 -44.53711858 80.1484375 -39.36328125 80.1484375 C-36.27603412 79.41018275 -34.87802414 78.64479671 -32.61328125 76.4609375 C-29.86403103 71.37482459 -30.20459717 65.18288491 -30.17578125 59.5234375 C-30.15451172 57.61691406 -30.15451172 57.61691406 -30.1328125 55.671875 C-30.3505246 52.3434629 -30.92087642 50.12446643 -32.36328125 47.1484375 C-35.98986989 47.1484375 -38.77322074 50.12586429 -41.61328125 52.2109375 Z " fill="#FDFEF1" transform="translate(696.36328125,146.8515625)"/>
<path d="M0 0 C7.75934393 5.20610877 14.5785107 11.17887392 16.87109375 20.5078125 C18.56733127 31.40984397 13.35269168 39.18962093 7.18359375 47.7578125 C6.31734375 48.6859375 6.31734375 48.6859375 5.43359375 49.6328125 C4.77359375 49.6328125 4.11359375 49.6328125 3.43359375 49.6328125 C3.43359375 50.2928125 3.43359375 50.9528125 3.43359375 51.6328125 C-7.13959393 59.79386611 -18.03997602 63.82505896 -31.25390625 63.7578125 C-32.02541016 63.76167969 -32.79691406 63.76554687 -33.59179688 63.76953125 C-39.31295533 63.75953796 -39.31295533 63.75953796 -41.56640625 62.6328125 C-40.9271866 65.10908349 -40.9271866 65.10908349 -39.56640625 67.6328125 C-37.28573555 68.84578899 -37.28573555 68.84578899 -34.56640625 69.6328125 C-33.65890625 70.13683594 -32.75140625 70.64085937 -31.81640625 71.16015625 C-25.58589286 73.98335763 -18.27922227 73.57881768 -11.71484375 71.90625 C-6.83576378 70.04827218 -2.4700132 67.51805329 1.83984375 64.5859375 C3.43359375 63.6328125 3.43359375 63.6328125 5.43359375 63.6328125 C5.43359375 62.9728125 5.43359375 62.3128125 5.43359375 61.6328125 C7.08359375 60.9728125 8.73359375 60.3128125 10.43359375 59.6328125 C10.43359375 58.9728125 10.43359375 58.3128125 10.43359375 57.6328125 C13.84916846 54.13393109 15.24794659 52.75137722 20.18359375 52.2578125 C23.43359375 52.6328125 23.43359375 52.6328125 25.43359375 53.6328125 C26.51885154 65.88416715 22.01978767 76.13282876 14.43359375 85.6328125 C1.75248517 100.04538013 -13.48873699 107.2909076 -32.56835938 108.546875 C-51.86393846 109.37679238 -67.39137485 103.31425268 -81.66796875 90.7890625 C-92.22741526 80.84116695 -98.11841528 68.95858417 -98.69140625 54.47265625 C-98.97380277 38.25250625 -95.12519956 24.25185816 -84.56640625 11.6328125 C-76.0899404 3.03942988 -66.07324296 -2.85860001 -54.56640625 -6.3671875 C-53.02726563 -6.90279297 -53.02726563 -6.90279297 -51.45703125 -7.44921875 C-34.48541359 -11.45356629 -14.96781642 -8.8516953 0 0 Z M-40.62890625 9.5703125 C-47.80461859 20.91256749 -47.88155831 34.65905289 -47.56640625 47.6328125 C-46.90640625 47.9628125 -46.24640625 48.2928125 -45.56640625 48.6328125 C-37.93391787 42.91318101 -32.97803436 36.24329078 -31.56640625 26.6328125 C-31.42613843 24.30220875 -31.34659538 21.96743827 -31.31640625 19.6328125 C-31.290625 18.4365625 -31.26484375 17.2403125 -31.23828125 16.0078125 C-31.59450265 12.34382095 -32.20128941 10.44538388 -34.56640625 7.6328125 C-38.55214218 7.17636219 -38.55214218 7.17636219 -40.62890625 9.5703125 Z " fill="#FDFEF1" transform="translate(994.56640625,144.3671875)"/>
<path d="M0 0 C1.07060669 0.00780991 1.07060669 0.00780991 2.1628418 0.01577759 C33.65103632 0.28427272 33.65103632 0.28427272 44.6875 9.5 C47.00371717 12.22496138 47.77347379 13.38234068 47.5 16.9375 C46.6875 19.5 46.6875 19.5 45.4375 22.0625 C43.48568464 31.00832042 49.04756536 41.78150443 52.125 50.125 C52.50720703 51.17945313 52.88941406 52.23390625 53.28320312 53.3203125 C55.63158662 59.76341559 58.09813884 66.15000532 60.6875 72.5 C62.04253656 70.17708018 63.37434148 67.84653757 64.6875 65.5 C65.01105469 64.9328125 65.33460938 64.365625 65.66796875 63.78125 C71.51422279 52.9000588 74.88250007 40.89417822 74.8125 28.5625 C74.81636719 27.88509766 74.82023438 27.20769531 74.82421875 26.50976562 C74.81778178 23.15288692 74.61079354 19.98758 74.11328125 16.6640625 C73.6875 13.5 73.6875 13.5 74.75 10.8125 C80.67110863 3.74537034 90.03204999 1.20656675 98.91357422 0.26367188 C108.02483348 -0.3472252 117.64647857 -0.42493562 125.6875 4.5 C128.6875 7.84135667 128.6875 7.84135667 128.6875 10.9375 C126.64550636 16.17010869 122.06630476 18.984265 117.75 22.3125 C111.5231476 27.25708205 107.68106606 32.54613847 103.92578125 39.50390625 C103.40161621 40.47255615 102.87745117 41.44120605 102.33740234 42.43920898 C101.79293457 43.44927002 101.2484668 44.45933105 100.6875 45.5 C99.60301725 47.50268685 98.51838105 49.5052906 97.43359375 51.5078125 C95.77351042 54.57651092 94.11393137 57.6454802 92.45507812 60.71484375 C89.23605015 66.66412677 85.98887745 72.59598866 82.6875 78.5 C82.0275 78.5 81.3675 78.5 80.6875 78.5 C80.61789062 79.03109375 80.54828125 79.5621875 80.4765625 80.109375 C79.35981141 83.49279908 77.2520798 85.99724845 75.0625 88.75 C74.60665527 89.3284668 74.15081055 89.90693359 73.68115234 90.50292969 C72.76850777 91.65476118 71.85208045 92.80360694 70.93164062 93.94921875 C69.9060877 95.22753747 68.8961814 96.51839263 67.890625 97.8125 C61.22010494 106.00204938 50.64223171 115.51327128 39.7421875 116.71435547 C37.4920592 116.87615905 35.25547059 116.95750737 33 117 C32.27466064 117.01877197 31.54932129 117.03754395 30.80200195 117.05688477 C25.68135072 116.99514767 22.6856893 115.93192214 18.6875 112.5 C14.27576553 107.39208758 13.33335504 101.73120305 11.9375 95.3125 C9.30823775 84.08750725 5.60592374 73.90462751 0.6875 63.5 C0.35991699 62.79407715 0.03233398 62.0881543 -0.30517578 61.36083984 C-4.41616828 52.55508162 -9.11432531 44.36124818 -14.52734375 36.29296875 C-16.3125 33.5 -16.3125 33.5 -17.3125 30.5 C-17.9725 30.5 -18.6325 30.5 -19.3125 30.5 C-20.38110995 29.33370548 -21.3927998 28.11494068 -22.375 26.875 C-25.05905264 23.66543811 -27.60302162 21.52454365 -31.1875 19.375 C-35.16835137 16.87933849 -35.16835137 16.87933849 -36.5 13.375 C-36.31294621 10.50684187 -35.87392075 8.88805527 -34.3125 6.5 C-33.6525 6.5 -32.9925 6.5 -32.3125 6.5 C-32.3125 5.84 -32.3125 5.18 -32.3125 4.5 C-21.38350514 1.29797865 -11.37616748 -0.17265375 0 0 Z " fill="#FDFEF1" transform="translate(767.3125,135.5)"/>
<path d="M0 0 C1.32 0 2.64 0 4 0 C4.05945801 1.16063965 4.05945801 1.16063965 4.12011719 2.34472656 C5.09714407 21.46561748 5.09714407 21.46561748 7.9375 40.375 C8.17388184 41.54724121 8.17388184 41.54724121 8.41503906 42.74316406 C9.99621293 49.93924792 12.65492159 55.92682877 17.0625 61.875 C18.10083984 63.29425781 18.10083984 63.29425781 19.16015625 64.7421875 C20.80124967 67.07181792 20.80124967 67.07181792 23 68 C23 68.66 23 69.32 23 70 C23.73734375 70.28230469 24.4746875 70.56460938 25.234375 70.85546875 C27.69521003 71.87386517 29.92270081 73.0274625 32.25 74.3125 C61.97537275 89.28560752 99.34372285 87.9525621 131.75 88.5 C143.96850288 88.70785053 156.18068457 88.95078145 168.390625 89.46875 C169.32952576 89.50609253 170.26842651 89.54343506 171.23577881 89.58190918 C172.09673157 89.62126587 172.95768433 89.66062256 173.84472656 89.70117188 C174.60158752 89.73464722 175.35844849 89.76812256 176.13824463 89.8026123 C178 90 178 90 180 91 C180 91.66 180 92.32 180 93 C177.0534235 93.83356266 174.34235606 94.16882877 171.28515625 94.28125 C170.31215576 94.31790771 169.33915527 94.35456543 168.33666992 94.39233398 C167.25619385 94.42786377 166.17571777 94.46339355 165.0625 94.5 C163.90661377 94.54133057 162.75072754 94.58266113 161.55981445 94.62524414 C153.79345122 94.88698702 146.02715873 95.06825391 138.2578125 95.21484375 C74.06501045 93.35470972 74.06501045 93.35470972 18 119 C17.67 119.66 17.34 120.32 17 121 C16.34 121 15.68 121 15 121 C14.62875 121.9590625 14.62875 121.9590625 14.25 122.9375 C13.57838156 124.58296518 12.88641247 126.22379161 12.08203125 127.80859375 C5.67693034 140.79057988 5.44239776 155.39991145 4.91601562 169.57397461 C4.83092395 171.75444889 4.72873507 173.93362718 4.625 176.11328125 C4.55152344 178.02814331 4.55152344 178.02814331 4.4765625 179.98168945 C4.31929687 180.97773193 4.16203125 181.97377441 4 183 C3.01 183.66 2.02 184.32 1 185 C-1.47216836 182.52783164 -1.26890366 181.74467219 -1.34375 178.3359375 C-1.37178711 177.38662354 -1.39982422 176.43730957 -1.42871094 175.45922852 C-1.46399902 173.9325354 -1.46399902 173.9325354 -1.5 172.375 C-1.94197729 159.7326895 -2.67981185 147.55257945 -6.375 135.375 C-6.5719043 134.72345947 -6.76880859 134.07191895 -6.97167969 133.40063477 C-8.3825526 129.08894883 -10.43894927 125.71624809 -13 122 C-13 121.34 -13 120.68 -13 120 C-13.66 120 -14.32 120 -15 120 C-16.13322669 118.83243311 -17.26626413 117.66468205 -18.3984375 116.49609375 C-45.18541206 91.47313947 -96.55424063 95.78704529 -130.3125 95.4375 C-173.1142931 94.94285345 -173.1142931 94.94285345 -177 93 C-176.67 92.01 -176.34 91.02 -176 90 C-165.11694231 89.40376507 -154.24693885 88.93176626 -143.34765625 88.7890625 C-142.35859283 88.77605103 -141.36952942 88.76303955 -140.35049438 88.74963379 C-138.30588801 88.72301051 -136.26128148 88.69639934 -134.2166748 88.6697998 C-89.11979048 88.35372136 -89.11979048 88.35372136 -45 80 C-43.80117187 79.65839844 -42.60234375 79.31679687 -41.3671875 78.96484375 C-31.95922314 76.05285478 -22.91729431 72.21344759 -16 65 C-15.67 64.34 -15.34 63.68 -15 63 C-14.34 63 -13.68 63 -13 63 C-12.7525 62.34 -12.505 61.68 -12.25 61 C-11.27875097 58.66900233 -10.23956276 56.53584077 -9.0625 54.3125 C-1.97928735 40.11974305 -1.82235573 23.99802856 -1.34130859 8.4543457 C-1.3098877 7.50132568 -1.2784668 6.54830566 -1.24609375 5.56640625 C-1.21020142 4.28165405 -1.21020142 4.28165405 -1.17358398 2.97094727 C-1 1 -1 1 0 0 Z " fill="#FDFEF4" transform="translate(240,85)"/>
<path d="M0 0 C5.78378658 6.09565742 7.5935241 12.48577484 7.40625 20.8046875 C6.642434 27.88659023 3.9636929 33.10075347 -0.71875 38.4296875 C-3.0398175 40.25770258 -4.97341345 41.24542468 -7.71875 42.4296875 C-8.70875 42.9246875 -8.70875 42.9246875 -9.71875 43.4296875 C-28.2144886 44.75486836 -28.2144886 44.75486836 -34.95703125 40.0390625 C-40.76845336 34.73018022 -44.10658097 29.3628984 -44.71875 21.4296875 C-45.00845187 12.86610035 -43.29109068 6.11058401 -37.71875 -0.5703125 C-37.05875 -0.5703125 -36.39875 -0.5703125 -35.71875 -0.5703125 C-35.71875 -1.2303125 -35.71875 -1.8903125 -35.71875 -2.5703125 C-24.10107645 -10.07339334 -10.27924052 -9.39148793 0 0 Z " fill="#FDFEF2" transform="translate(1230.71875,208.5703125)"/>
<path d="M0 0 C4.62 0 9.24 0 14 0 C13.01 0.33 12.02 0.66 11 1 C11 1.99 11 2.98 11 4 C9.37509046 4.02698189 7.75005367 4.04638757 6.125 4.0625 C4.76761719 4.07990234 4.76761719 4.07990234 3.3828125 4.09765625 C1 4 1 4 -1 3 C-0.67 2.01 -0.34 1.02 0 0 Z " fill="#FCFCF4" transform="translate(64,175)"/>
</svg>
